<svg width="140mm" height="140mm" version="1.1" viewBox="0 0 140 140" xmlns="http://www.w3.org/2000/svg"><g transform="translate(-49.527 -78.716)"><path d="m114.73 214.45c-1.5257-0.41711-2.7721-1.1905-3.9835-2.4717-1.2929-1.3675-34.543-51.168-35.385-52.997-0.53035-1.1528-0.6685-1.8721-0.6685-3.4805 0-2.9234 1.031-4.9532 3.626-7.1391 1.0425-0.87811 2.5503-1.9134 3.3507-2.3006 2.8795-1.393 6.7463-0.69888 8.8904 1.5959 0.44769 0.47915 2.877 3.7287 5.3986 7.2212 2.5215 3.4925 4.8029 6.5848 5.0697 6.8718 0.4706 0.50623 0.48518-0.41022 0.48823-30.692 3e-3 -34.172-0.0583-32.795 1.5765-35.171 1.7993-2.6151 4.3707-3.7234 8.184-3.5271 2.937 0.15116 4.6541 0.87752 6.2373 2.6384 2.2728 2.5279 2.2554 2.3955 2.2554 17.159 0 7.1251 0.0451 12.955 0.10032 12.955 0.0552 0 0.79931-0.32107 1.6536-0.71349 2.0105-0.92346 5.3696-1.1482 7.5758-0.50682 3.3248 0.96655 5.685 4.0665 5.9535 7.8194l0.13174 1.8414 1.3545-0.71453c1.2624-0.66595 1.5792-0.71452 4.6617-0.71452 3.172 0 3.3653 0.0321 4.7251 0.78533 2.7205 1.5068 4.1819 4.0421 4.2885 7.4399 0.0315 1.0059 0.0968 1.9016 0.14489 1.9904 0.0481 0.0888 0.71505-0.14928 1.482-0.52917 1.1108-0.55018 1.8697-0.70966 3.7302-0.78388 2.1768-0.0868 2.4499-0.037 4.014 0.73304 1.9372 0.95367 3.1054 2.1691 4.078 4.2429l0.68821 1.4673-1e-3 20.108c-1e-3 18.234-0.0467 20.404-0.49011 23.283-0.93787 6.0888-2.6992 11.932-5.3772 17.839-1.2532 2.7644-2.3973 4.056-4.5176 5.1l-1.7731 0.87307-18.13 0.0527c-13.772 0.0401-18.419-0.0264-19.334-0.27635zm-18.243-91.81c-3.9908-3.1524-6.7564-7.4523-8.1096-12.609-0.63288-2.4117-0.6206-7.7045 0.0236-10.164 1.1664-4.4535 3.1139-7.8347 6.2771-10.898 4.5111-4.3691 9.3156-6.2887 15.7-6.2727 2.9428 0.0074 3.7757 0.10989 5.767 0.70971 9.1537 2.7573 15.192 9.858 16.317 19.187 0.61306 5.0849-0.9611 11.231-3.9126 15.276l-0.79606 1.091-2.3377 0.12897c-1.2857 0.0709-2.546 0.21778-2.8007 0.32633-0.41598 0.17732-0.46302 7e-3 -0.46302-1.6776 0-1.7789 0.0543-1.9465 1.0587-3.2695 4.3022-5.6664 4.1248-14.074-0.41253-19.545-3.1421-3.7893-7.5102-5.7814-12.695-5.7899-4.456-0.0073-8.2133 1.4909-11.179 4.4573-4.0344 4.0358-5.7386 10.032-4.32 15.2 0.64017 2.3321 1.589 4.3517 2.7182 5.7857l0.766 0.97272-0.07296 4.1205-0.07297 4.1205z" stroke-width=".26458"/></g></svg>
